<svg width="71" height="50" viewBox="0 0 71 50" fill="none" xmlns="http://www.w3.org/2000/svg">
<path d="M35.5013 0C34.6129 0 33.7356 0.156219 32.902 0.457499L2.13882 11.7611C1.09692 12.1516 0.405985 13.1559 0.405985 14.2829C0.405985 15.4099 1.09692 16.4142 2.13882 16.8047L8.48887 19.1369C6.69024 22.0158 5.67028 25.4191 5.67028 29.001V32.1366C5.67028 35.3056 4.48581 38.575 3.22458 41.1526C2.5117 42.6033 1.70012 44.0315 0.756938 45.3483C0.405985 45.8281 0.307279 46.4529 0.504691 47.022C0.702102 47.5911 1.16273 48.0151 1.73303 48.1602L8.75209 49.9456C9.21271 50.0683 9.70624 49.979 10.112 49.7224C10.5178 49.4658 10.803 49.0417 10.8907 48.5619C11.8339 43.7861 11.3623 39.5012 10.6604 36.4326C10.3094 34.8481 9.83785 33.2301 9.17981 31.746V29.001C9.17981 25.6311 10.2985 22.451 12.2397 19.9068C13.6545 18.1772 15.486 16.7824 17.6356 15.9232L34.8542 9.03841C35.7535 8.68133 36.7735 9.12768 37.1245 10.0427C37.4754 10.9577 37.0367 11.9954 36.1374 12.3525L18.9188 19.2373C17.5588 19.7841 16.3634 20.621 15.3873 21.6475L32.8911 28.0749C33.7246 28.3761 34.602 28.5324 35.4903 28.5324C36.3787 28.5324 37.2561 28.3761 38.0896 28.0749L68.8638 16.8047C69.9057 16.4254 70.5966 15.4099 70.5966 14.2829C70.5966 13.1559 69.9057 12.1516 68.8638 11.7611L38.1005 0.457499C37.267 0.156219 36.3896 0 35.5013 0ZM14.4441 41.9561C14.4441 45.895 23.876 49.9902 35.5013 49.9902C47.1266 49.9902 56.5585 45.895 56.5585 41.9561L54.8805 25.7316L39.285 31.467C38.0676 31.9134 36.7845 32.1366 35.5013 32.1366C34.2181 32.1366 32.924 31.9134 31.7176 31.467L16.1221 25.7316L14.4441 41.9561Z" fill="#B62626"/>
</svg>
