<svg width="45" height="36" viewBox="0 0 45 36" fill="none" xmlns="http://www.w3.org/2000/svg">
<path d="M9 36.0005C6.525 36.0005 4.40625 35.1192 2.64375 33.3567C0.88125 31.5942 0 29.4755 0 27.0005V9.00049C0 6.52549 0.88125 4.40674 2.64375 2.64424C4.40625 0.881739 6.525 0.000488281 9 0.000488281H36C38.475 0.000488281 40.5938 0.881739 42.3563 2.64424C44.1188 4.40674 45 6.52549 45 9.00049V27.0005C45 29.4755 44.1188 31.5942 42.3563 33.3567C40.5938 35.1192 38.475 36.0005 36 36.0005H9ZM9 9.00049H36C36.825 9.00049 37.6125 9.09424 38.3625 9.28174C39.1125 9.46924 39.825 9.76924 40.5 10.1817V9.00049C40.5 7.76299 40.0597 6.70399 39.1792 5.82349C38.2987 4.94299 37.239 4.50199 36 4.50049H9C7.7625 4.50049 6.7035 4.94149 5.823 5.82349C4.9425 6.70549 4.5015 7.76449 4.5 9.00049V10.1817C5.175 9.76924 5.8875 9.46924 6.6375 9.28174C7.3875 9.09424 8.175 9.00049 9 9.00049ZM4.8375 16.313L29.8687 22.388C30.2062 22.463 30.5438 22.463 30.8813 22.388C31.2188 22.313 31.5375 22.163 31.8375 21.938L39.6562 15.413C39.2437 14.8505 38.7187 14.3915 38.0812 14.036C37.4437 13.6805 36.75 13.502 36 13.5005H9C8.025 13.5005 7.17225 13.754 6.44175 14.261C5.71125 14.768 5.1765 15.452 4.8375 16.313Z" fill="currentColor"/>
</svg>
