<svg viewBox="0 0 53 60" fill="none" xmlns="http://www.w3.org/2000/svg">
<path d="M7.70833 47.9997H52.9997V0H7.58333C5.57409 0.00646009 3.64899 0.80749 2.22824 2.22824C0.80749 3.64899 0.00646009 5.57409 0 7.58333V51.7809H0.00137519C0.00137519 51.7998 0 51.8184 0 51.8376C0 56.2625 3.47273 60 7.58333 60H52.9997V55.9997H7.58333C5.70796 55.9997 3.99998 54.0158 3.99998 51.8372C3.99998 49.7572 5.69809 47.9997 7.70833 47.9997ZM39.9998 4.0416V25.6435L33.9498 20.3322L27.9998 25.6123V4.0416H39.9998ZM23.9999 3.99998V30.9998H27.9549L33.9643 25.6675L40.0379 30.9998H43.9997V3.99998H48.9997V43.9997H12.0099L11.9999 3.99998H23.9999ZM7.58333 3.99998H7.99995L8.00945 43.9997H7.70783C6.4072 44 5.12915 44.3397 3.99998 44.9851V7.61458C3.99692 6.6604 4.37247 5.74396 5.04424 5.06633C5.71602 4.3887 6.62916 4.0052 7.58333 3.99998Z" fill="white"/>
</svg>
