<svg width="73" height="73" viewBox="0 0 73 73" fill="none" xmlns="http://www.w3.org/2000/svg">
<path d="M36.5 47.9062C41.5396 47.9062 45.625 43.8208 45.625 38.7812C45.625 33.7417 41.5396 29.6562 36.5 29.6562C31.4604 29.6562 27.375 33.7417 27.375 38.7812C27.375 43.8208 31.4604 47.9062 36.5 47.9062Z" fill="#B62626"/>
<path d="M65.0156 20.5312H53.1816C52.7539 20.5312 52.2235 20.2546 51.81 19.8184L47.9205 13.716C46.3379 11.4062 45.625 11.4062 43.0586 11.4062H29.9414C27.375 11.4062 26.5195 11.4062 25.0838 13.7174L21.19 19.8184C20.8734 20.1634 20.4286 20.5312 19.9609 20.5312V18.25C19.9609 17.9475 19.8408 17.6574 19.6269 17.4435C19.4129 17.2295 19.1228 17.1094 18.8203 17.1094H13.1172C12.8147 17.1094 12.5246 17.2295 12.3106 17.4435C12.0967 17.6574 11.9766 17.9475 11.9766 18.25V20.5312H7.98438C7.07684 20.5312 6.20647 20.8918 5.56474 21.5335C4.92302 22.1752 4.5625 23.0456 4.5625 23.9531V58.1719C4.5625 59.0794 4.92302 59.9498 5.56474 60.5915C6.20647 61.2332 7.07684 61.5938 7.98438 61.5938H65.0156C65.9232 61.5938 66.7935 61.2332 67.4353 60.5915C68.077 59.9498 68.4375 59.0794 68.4375 58.1719V23.9531C68.4375 23.0456 68.077 22.1752 67.4353 21.5335C66.7935 20.8918 65.9232 20.5312 65.0156 20.5312ZM37.143 52.4545C34.3842 52.5841 31.6507 51.876 29.3017 50.4234C26.9527 48.9708 25.0981 46.8415 23.9816 44.3153C22.8651 41.7892 22.5389 38.9844 23.0459 36.2695C23.5529 33.5545 24.8694 31.0565 26.8223 29.1035C28.7752 27.1506 31.2733 25.8342 33.9882 25.3272C36.7032 24.8202 39.508 25.1464 42.0341 26.2629C44.5602 27.3794 46.6895 29.234 48.1421 31.583C49.5948 33.932 50.3028 36.6654 50.1732 39.4243C50.0098 42.8274 48.5846 46.0476 46.1754 48.4567C43.7663 50.8658 40.5461 52.2911 37.143 52.4545Z" fill="#B62626"/>
</svg>
