<svg width="73" height="50" viewBox="0 0 73 50" fill="none" xmlns="http://www.w3.org/2000/svg">
<path d="M43.6433 7.14286V32.1429H7.92899V7.14286H43.6433ZM7.92899 0C3.98926 0 0.786133 3.20313 0.786133 7.14286V32.1429C0.786133 36.0826 3.98926 39.2857 7.92899 39.2857H21.0205L19.8263 42.8571H11.5004C9.52497 42.8571 7.92899 44.4531 7.92899 46.4286C7.92899 48.404 9.52497 50 11.5004 50H40.0718C42.0473 50 43.6433 48.404 43.6433 46.4286C43.6433 44.4531 42.0473 42.8571 40.0718 42.8571H31.7348L30.5406 39.2857H43.6433C47.583 39.2857 50.7861 36.0826 50.7861 32.1429V7.14286C50.7861 3.20313 47.583 0 43.6433 0H7.92899ZM59.7147 0C56.7571 0 54.3576 2.39955 54.3576 5.35714V44.6429C54.3576 47.6004 56.7571 50 59.7147 50H66.8576C69.8152 50 72.2147 47.6004 72.2147 44.6429V5.35714C72.2147 2.39955 69.8152 0 66.8576 0H59.7147ZM61.5004 7.14286H65.0719C66.054 7.14286 66.8576 7.94643 66.8576 8.92857C66.8576 9.91071 66.054 10.7143 65.0719 10.7143H61.5004C60.5183 10.7143 59.7147 9.91071 59.7147 8.92857C59.7147 7.94643 60.5183 7.14286 61.5004 7.14286ZM59.7147 16.0714C59.7147 15.0893 60.5183 14.2857 61.5004 14.2857H65.0719C66.054 14.2857 66.8576 15.0893 66.8576 16.0714C66.8576 17.0536 66.054 17.8571 65.0719 17.8571H61.5004C60.5183 17.8571 59.7147 17.0536 59.7147 16.0714ZM63.2861 33.9286C64.2333 33.9286 65.1417 34.3048 65.8115 34.9746C66.4813 35.6444 66.8576 36.5528 66.8576 37.5C66.8576 38.4472 66.4813 39.3556 65.8115 40.0254C65.1417 40.6952 64.2333 41.0714 63.2861 41.0714C62.3389 41.0714 61.4305 40.6952 60.7608 40.0254C60.091 39.3556 59.7147 38.4472 59.7147 37.5C59.7147 36.5528 60.091 35.6444 60.7608 34.9746C61.4305 34.3048 62.3389 33.9286 63.2861 33.9286Z" fill="#B62626"/>
</svg>
