<svg width="73" height="73" viewBox="0 0 73 73" fill="none" xmlns="http://www.w3.org/2000/svg">
<path d="M29.6562 9.125H39.1733C40.383 9.12518 41.543 9.60572 42.3985 10.461L62.539 30.6015C63.3943 31.457 63.8748 32.617 63.875 33.8267V61.5938C63.875 63.4088 63.154 65.1496 61.8705 66.433C60.5871 67.7165 58.8463 68.4375 57.0312 68.4375H27.375C25.5599 68.4375 23.8192 67.7165 22.5357 66.433C21.2523 65.1496 20.5312 63.4088 20.5312 61.5938V43.3438" stroke="#B62626" stroke-width="5" stroke-linecap="round" stroke-linejoin="round"/>
<path d="M41.0625 10.2656V27.375C41.0625 28.5851 41.5432 29.7455 42.3988 30.6012C43.2545 31.4568 44.4149 31.9375 45.625 31.9375H62.7344" stroke="#B62626" stroke-width="5" stroke-linecap="round" stroke-linejoin="round"/>
<path d="M22.8125 11.4062V33.0781C22.8184 33.5291 22.734 33.9768 22.5641 34.3946C22.3943 34.8125 22.1424 35.1921 21.8235 35.511C21.5046 35.8299 21.125 36.0818 20.7071 36.2516C20.2893 36.4215 19.8416 36.5059 19.3906 36.5C17.6797 36.5 15.9688 35.2025 15.9688 33.0781V12.5469C15.9688 8.18541 18.3313 4.5625 22.8125 4.5625C27.2937 4.5625 29.6562 8.09844 29.6562 12.4585V32.2412C29.6562 38.3721 25.6897 43.3438 19.3906 43.3438C13.0915 43.3438 9.125 38.3735 9.125 32.2412V20.5312" stroke="#B62626" stroke-width="5" stroke-miterlimit="10" stroke-linecap="round"/>
</svg>
