<svg width="73" height="73" viewBox="0 0 73 73" fill="none" xmlns="http://www.w3.org/2000/svg">
<path d="M59.3125 31.5454V59.3125C59.3125 61.1276 58.5915 62.8683 57.308 64.1518C56.0246 65.4352 54.2838 66.1562 52.4688 66.1562H20.5312C18.7162 66.1562 16.9754 65.4352 15.692 64.1518C14.4085 62.8683 13.6875 61.1276 13.6875 59.3125V13.6875C13.6875 11.8724 14.4085 10.1317 15.692 8.84824C16.9754 7.56479 18.7162 6.84375 20.5312 6.84375H34.6108C35.8205 6.84393 36.9805 7.32447 37.836 8.17971L57.9765 28.3203C58.8318 29.1757 59.3123 30.3358 59.3125 31.5454Z" stroke="#B62626" stroke-width="5" stroke-linejoin="round"/>
<path d="M36.5 7.98438V25.0938C36.5 26.3038 36.9807 27.4643 37.8363 28.3199C38.692 29.1756 39.8524 29.6562 41.0625 29.6562H58.1719M25.0938 41.0625H47.9062H25.0938ZM25.0938 52.4688H47.9062H25.0938Z" fill="white"/>
<path d="M36.5 7.98438V25.0937C36.5 26.3038 36.9807 27.4643 37.8363 28.3199C38.692 29.1756 39.8524 29.6562 41.0625 29.6562H58.1719M25.0938 41.0625H47.9062M25.0938 52.4687H47.9062" stroke="#B62626" stroke-width="5" stroke-linecap="round" stroke-linejoin="round"/>
</svg>
