<svg viewBox="0 0 71 60" fill="none" xmlns="http://www.w3.org/2000/svg">
<path d="M29.1478 1.79762C31.0521 0.622399 33.2458 0 35.4835 0C37.7213 0 39.9149 0.622399 41.8192 1.79762L69.9553 19.1584C70.2604 19.3465 70.5131 19.6086 70.6899 19.9204C70.8667 20.2322 70.9619 20.5836 70.9667 20.942C70.9715 21.3004 70.8858 21.6542 70.7174 21.9706C70.549 22.287 70.3035 22.5558 70.0036 22.7521L58.1922 30.473V49.3553C58.1922 50.1955 57.7324 50.7178 57.1902 51.243C56.8155 51.6092 56.4283 51.9623 56.0292 52.3018C54.6625 53.4679 53.2002 54.5171 51.6578 55.4384C47.8768 57.7093 42.3557 60 35.4835 60C28.6141 60 23.0903 57.7093 19.3093 55.4384C17.7668 54.5171 16.3046 53.4679 14.9378 52.3018C14.5391 51.9609 14.151 51.6078 13.774 51.243C13.2375 50.7178 12.7748 50.2069 12.7748 49.3553V30.473L4.25907 24.9066V42.2588C4.25907 42.8235 4.03477 43.365 3.63551 43.7642C3.23626 44.1635 2.69476 44.3878 2.13013 44.3878C1.5655 44.3878 1.02399 44.1635 0.624739 43.7642C0.225485 43.365 0.00118648 42.8235 0.00118648 42.2588V21.6791C0.00118648 21.5561 0.0106484 21.4378 0.0295723 21.3243C-0.0407922 20.9065 0.0150811 20.4772 0.190043 20.0914C0.365006 19.7056 0.6511 19.3807 1.01172 19.1584L29.1478 1.79762ZM17.0327 33.2577V48.4668C17.2163 48.6371 17.4415 48.8377 17.7083 49.0686C18.5655 49.8066 19.8429 50.7945 21.4978 51.788C24.8133 53.775 29.5821 55.7421 35.4835 55.7421C41.3878 55.7421 46.1566 53.775 49.4692 51.788C51.0628 50.8298 52.5583 49.7174 53.9343 48.4668V33.2577L42.0861 41.007C40.1232 42.2906 37.8288 42.9742 35.4835 42.9742C33.1382 42.9742 30.8438 42.2906 28.881 41.007L17.0327 33.2577ZM39.5824 5.41965C38.3504 4.65948 36.9312 4.2569 35.4835 4.2569C34.0358 4.2569 32.6167 4.65948 31.3846 5.41965L6.09847 21.0205L31.2114 37.4417C32.4815 38.2722 33.9661 38.7145 35.4835 38.7145C37.001 38.7145 38.4855 38.2722 39.7556 37.4417L64.8686 21.0205L39.5824 5.41965Z" fill="white"/>
</svg>

