<svg width="51" height="50" viewBox="0 0 51 50" fill="none" xmlns="http://www.w3.org/2000/svg">
<path d="M50.11 46.9212C50.325 47.2068 50.456 47.5468 50.4885 47.9028C50.5209 48.2588 50.4534 48.6168 50.2937 48.9366C50.1339 49.2564 49.8881 49.5253 49.584 49.7132C49.2798 49.901 48.9293 50.0003 48.5718 50H2.42569C2.06861 50 1.71858 49.9006 1.41483 49.7128C1.11108 49.5251 0.865612 49.2565 0.705921 48.9371C0.546231 48.6177 0.478632 48.2602 0.5107 47.9046C0.542768 47.5489 0.673235 47.2092 0.887482 46.9236C2.59021 44.6411 4.86055 42.8439 7.47292 41.7105C6.04089 40.4035 5.0375 38.6941 4.59443 36.8066C4.15137 34.9191 4.28934 32.9418 4.99024 31.1341C5.69114 29.3264 6.92221 27.7729 8.52187 26.6775C10.1215 25.582 12.015 24.9958 13.9538 24.9958C15.8926 24.9958 17.7861 25.582 19.3858 26.6775C20.9854 27.7729 22.2165 29.3264 22.9174 31.1341C23.6183 32.9418 23.7563 34.9191 23.3132 36.8066C22.8701 38.6941 21.8667 40.4035 20.4347 41.7105C22.3196 42.5251 24.0324 43.6907 25.4819 45.145C26.9315 43.6907 28.6443 42.5251 30.5292 41.7105C29.0971 40.4035 28.0937 38.6941 27.6507 36.8066C27.2076 34.9191 27.3456 32.9418 28.0465 31.1341C28.7474 29.3264 29.9785 27.7729 31.5781 26.6775C33.1778 25.582 35.0713 24.9958 37.0101 24.9958C38.9489 24.9958 40.8423 25.582 42.442 26.6775C44.0417 27.7729 45.2727 29.3264 45.9736 31.1341C46.6745 32.9418 46.8125 34.9191 46.3694 36.8066C45.9264 38.6941 44.923 40.4035 43.4909 41.7105C46.1156 42.8377 48.3981 44.6346 50.11 46.9212ZM1.27203 24.6196C1.47403 24.7711 1.7039 24.8813 1.9485 24.944C2.1931 25.0067 2.44764 25.0206 2.69761 24.9848C2.94757 24.9491 3.18805 24.8645 3.40532 24.7359C3.62259 24.6072 3.81239 24.4371 3.96389 24.2351C5.12804 22.6829 6.63758 21.423 8.37299 20.5553C10.1084 19.6876 12.022 19.2359 13.9622 19.2359C15.9025 19.2359 17.8161 19.6876 19.5515 20.5553C21.2869 21.423 22.7964 22.6829 23.9606 24.2351C24.1397 24.4739 24.3719 24.6677 24.6389 24.8012C24.9059 24.9347 25.2003 25.0042 25.4988 25.0042C25.7973 25.0042 26.0917 24.9347 26.3586 24.8012C26.6256 24.6677 26.8579 24.4739 27.037 24.2351C28.2011 22.6829 29.7107 21.423 31.4461 20.5553C33.1815 19.6876 35.0951 19.2359 37.0353 19.2359C38.9755 19.2359 40.8891 19.6876 42.6245 20.5553C44.3599 21.423 45.8695 22.6829 47.0336 24.2351C47.1853 24.4371 47.3752 24.6072 47.5927 24.7358C47.8101 24.8644 48.0507 24.9489 48.3008 24.9845C48.5508 25.0201 48.8055 25.0061 49.0501 24.9433C49.2948 24.8805 49.5247 24.7701 49.7267 24.6184C49.9287 24.4668 50.0988 24.2768 50.2274 24.0594C50.356 23.842 50.4405 23.6014 50.4761 23.3513C50.5117 23.1012 50.4977 22.8466 50.4349 22.6019C50.3721 22.3572 50.2617 22.1274 50.11 21.9254C48.4074 19.6434 46.137 17.8469 43.5246 16.7147C44.9566 15.4077 45.96 13.6983 46.4031 11.8108C46.8462 9.92329 46.7082 7.94595 46.0073 6.13828C45.3064 4.33061 44.0753 2.7771 42.4757 1.68165C40.876 0.586196 38.9825 0 37.0437 0C35.1049 0 33.2114 0.586196 31.6118 1.68165C30.0121 2.7771 28.781 4.33061 28.0801 6.13828C27.3792 7.94595 27.2413 9.92329 27.6843 11.8108C28.1274 13.6983 29.1308 15.4077 30.5628 16.7147C28.6779 17.5293 26.9651 18.6948 25.5156 20.1492C24.0661 18.6948 22.3532 17.5293 20.4683 16.7147C21.9004 15.4077 22.9038 13.6983 23.3468 11.8108C23.7899 9.92329 23.6519 7.94595 22.951 6.13828C22.2501 4.33061 21.0191 2.7771 19.4194 1.68165C17.8197 0.586196 15.9263 0 13.9875 0C12.0487 0 10.1552 0.586196 8.55551 1.68165C6.95586 2.7771 5.72478 4.33061 5.02389 6.13828C4.32299 7.94595 4.18502 9.92329 4.62808 11.8108C5.07115 13.6983 6.07454 15.4077 7.50657 16.7147C4.88194 17.843 2.5995 19.6406 0.887482 21.9278C0.735982 22.1298 0.625752 22.3596 0.563086 22.6042C0.500421 22.8488 0.486546 23.1034 0.522255 23.3533C0.557964 23.6033 0.642557 23.8438 0.771204 24.061C0.899851 24.2783 1.07003 24.4681 1.27203 24.6196Z" fill="#B62626"/>
</svg>
