<svg width="37" height="36" viewBox="0 0 37 36" fill="none" xmlns="http://www.w3.org/2000/svg">
<path d="M18.5 0C28.4414 0 36.5 8.0586 36.5 18C36.5 27.9414 28.4414 36 18.5 36C8.5586 36 0.5 27.9414 0.5 18C0.5 8.0586 8.5586 0 18.5 0ZM18.5 3.6C14.6809 3.6 11.0182 5.11714 8.31766 7.81766C5.61714 10.5182 4.1 14.1809 4.1 18C4.1 21.8191 5.61714 25.4818 8.31766 28.1823C11.0182 30.8829 14.6809 32.4 18.5 32.4C22.3191 32.4 25.9818 30.8829 28.6823 28.1823C31.3829 25.4818 32.9 21.8191 32.9 18C32.9 14.1809 31.3829 10.5182 28.6823 7.81766C25.9818 5.11714 22.3191 3.6 18.5 3.6ZM18.5 25.2C18.9774 25.2 19.4352 25.3896 19.7728 25.7272C20.1104 26.0648 20.3 26.5226 20.3 27C20.3 27.4774 20.1104 27.9352 19.7728 28.2728C19.4352 28.6104 18.9774 28.8 18.5 28.8C18.0226 28.8 17.5648 28.6104 17.2272 28.2728C16.8896 27.9352 16.7 27.4774 16.7 27C16.7 26.5226 16.8896 26.0648 17.2272 25.7272C17.5648 25.3896 18.0226 25.2 18.5 25.2ZM18.5 8.1C20.0161 8.10005 21.4849 8.62804 22.654 9.59328C23.8231 10.5585 24.6197 11.9008 24.9068 13.3894C25.1938 14.8781 24.9536 16.4203 24.2272 17.7511C23.5009 19.0819 22.3338 20.1182 20.9264 20.682C20.7179 20.7586 20.5301 20.8825 20.3774 21.0438C20.2982 21.1338 20.2856 21.249 20.2874 21.3678L20.3 21.6C20.2995 22.0588 20.1238 22.5001 19.8089 22.8337C19.4939 23.1673 19.0635 23.368 18.6055 23.3949C18.1475 23.4218 17.6965 23.2728 17.3447 22.9783C16.9929 22.6839 16.7668 22.2662 16.7126 21.8106L16.7 21.6V21.15C16.7 19.0746 18.374 17.829 19.5872 17.3412C20.081 17.144 20.5117 16.8161 20.8331 16.3926C21.1546 15.9691 21.3546 15.466 21.4117 14.9374C21.4688 14.4088 21.3808 13.8746 21.1572 13.3923C20.9336 12.9099 20.5828 12.4975 20.1426 12.1995C19.7023 11.9014 19.1891 11.7289 18.6582 11.7005C18.1273 11.6721 17.5987 11.7888 17.1291 12.0382C16.6595 12.2875 16.2668 12.6601 15.9929 13.1158C15.7191 13.5716 15.5747 14.0933 15.575 14.625C15.575 15.1024 15.3854 15.5602 15.0478 15.8978C14.7102 16.2354 14.2524 16.425 13.775 16.425C13.2976 16.425 12.8398 16.2354 12.5022 15.8978C12.1646 15.5602 11.975 15.1024 11.975 14.625C11.975 12.8945 12.6625 11.2348 13.8861 10.0111C15.1098 8.78745 16.7695 8.1 18.5 8.1Z" fill="white"/>
</svg>
