<svg width="45" height="36" viewBox="0 0 45 36" fill="none" xmlns="http://www.w3.org/2000/svg">
<path d="M40.5 0.000488281H4.5C3.30653 0.000488281 2.16193 0.474594 1.31802 1.31851C0.474106 2.16242 0 3.30701 0 4.50049V31.5005C0 32.694 0.474106 33.8386 1.31802 34.6825C2.16193 35.5264 3.30653 36.0005 4.5 36.0005H40.5C41.6935 36.0005 42.8381 35.5264 43.682 34.6825C44.5259 33.8386 45 32.694 45 31.5005V4.50049C45 3.30701 44.5259 2.16242 43.682 1.31851C42.8381 0.474594 41.6935 0.000488281 40.5 0.000488281ZM40.5 4.50049V9.00049H4.5V4.50049H40.5ZM4.5 31.5005V18.0005H40.5V31.5005H4.5ZM9 22.5005H24.75V27.0005H9V22.5005ZM29.25 22.5005H36V27.0005H29.25V22.5005Z" fill="currentColor"/>
</svg>
